<svg xmlns="http://www.w3.org/2000/svg" id="Calque_1" data-name="Calque 1" version="1.1" viewBox="0 0 367 39.7"><defs><style> .cls-1 { fill: #00e288; } .cls-1, .cls-2 { stroke-width: 0px; } .cls-2 { fill: #fff; } </style></defs><path class="cls-2" d="M12.9,23.2c2.6,0,4.6,2.1,4.6,4.6s-2.1,4.6-4.6,4.6v6.8c6.3,0,11.4-5.1,11.4-11.4s-5.1-11.4-11.4-11.4v6.8Z"></path><path class="cls-2" d="M49.4,7.1c2.6,0,4.6,2.1,4.6,4.6s-2.1,4.6-4.6,4.6v6.8c6.3,0,11.4-5.1,11.4-11.4S55.8.3,49.4.3v6.8Z"></path><path class="cls-2" d="M49.4,23.3c2.6,0,4.6,2.1,4.6,4.6s-2.1,4.6-4.6,4.6v6.8c6.3,0,11.4-5.1,11.4-11.4s-5.1-11.4-11.4-11.4v6.8Z"></path><path class="cls-2" d="M86.1,23.2l7.7,15.5c.1.2.4.5.9.5h5.8c.9,0,1.3-.9.9-1.6l-10.3-19.2-5.1,4.8Z"></path><path class="cls-1" d="M7.1,32.6V.4H1.1C.4.4,0,.9,0,1.4v36.7c0,.6.4,1.1,1.1,1.1h6.1v-6.5Z"></path><path class="cls-1" d="M43.7,32.6V.4h-6.1c-.6,0-1.1.5-1.1,1.1v36.7c0,.6.4,1.1,1.1,1.1h6.1v-6.5Z"></path><path class="cls-1" d="M80.4,32.6V.4h-6.1c-.6,0-1.1.5-1.1,1.1v36.7c0,.6.4,1.1,1.1,1.1h6.1v-6.5Z"></path><path class="cls-2" d="M86.1,7.1c2.6,0,4.6,2.1,4.6,4.6s-2.1,4.6-4.6,4.6v6.8c6.3,0,11.4-5.1,11.4-11.4S92.4.3,86.1.3v6.8Z"></path><path class="cls-2" d="M12.9,7.1c2.6,0,4.6,2.1,4.6,4.6s-2.1,4.6-4.6,4.6v6.8c6.3,0,11.4-5.1,11.4-11.4S19.2.3,12.9.3v6.8Z"></path><g><path class="cls-2" d="M125.1,1.6c0-.6.4-1,1-1h22.4c.6,0,1,.5,1,1v4.5c0,.6-.4,1-1,1h-16.3v9h13.6c.6,0,1,.5,1,1v4.6c0,.6-.5,1-1,1h-13.6v9.7h16.3c.6,0,1,.5,1,1v4.5c0,.6-.4,1-1,1h-22.4c-.6,0-1-.5-1-1V1.6Z"></path><path class="cls-2" d="M160.3,1c0-.6.5-1,1-1h1.4l22.9,24.4h0V1.6c0-.6.4-1,1-1h5.1c.6,0,1,.5,1,1v37.1c0,.6-.5,1-1,1h-1.3l-23.1-25.3h0v23.7c0,.6-.4,1-1,1h-5c-.6,0-1-.5-1-1V1Z"></path><path class="cls-2" d="M205.7,1.6c0-.6.4-1,1-1h22.4c.6,0,1,.5,1,1v4.5c0,.6-.4,1-1,1h-16.3v9h13.6c.6,0,1,.5,1,1v4.6c0,.6-.5,1-1,1h-13.6v9.7h16.3c.6,0,1,.5,1,1v4.5c0,.6-.4,1-1,1h-22.4c-.6,0-1-.5-1-1V1.6Z"></path><path class="cls-2" d="M240.9,1.6c0-.6.4-1,1-1h15.8c6.6,0,12,5.3,12,11.9s-3.4,9.2-8.2,11.1l7.6,14c.4.7,0,1.6-.9,1.6h-5.8c-.5,0-.8-.3-.9-.5l-7.3-14.6h-6.1v14.1c0,.6-.5,1-1,1h-5.1c-.6,0-1-.5-1-1V1.6ZM257.1,18.1c2.9,0,5.5-2.5,5.5-5.6s-2.5-5.4-5.5-5.4h-9v11h9Z"></path><path class="cls-2" d="M297.4,0c5,0,9.7,1.9,13.5,5.1.4.4.5,1.1,0,1.5l-3.4,3.6c-.4.4-.9.4-1.4,0-2.4-2.1-5.3-3.2-8.3-3.2-6.9,0-12.4,5.9-12.4,12.8s5.5,12.6,12.4,12.6,5.5-.9,6.6-1.4v-4.7h-4.4c-.6,0-1-.4-1-1v-4.4c0-.6.4-1,1-1h10.6c.6,0,1,.5,1,1v14.1c0,.4-.2.7-.4.9,0,0-5.7,3.6-13.7,3.6s-19.8-8.7-19.8-19.7S286.5,0,297.4,0Z"></path><path class="cls-2" d="M322.4,1.6c0-.6.5-1,1-1h5.1c.6,0,1,.5,1,1v36.5c0,.6-.5,1-1,1h-5.1c-.6,0-1-.5-1-1V1.6Z"></path><path class="cls-2" d="M342.5,1.6c0-.6.4-1,1-1h22.4c.6,0,1,.5,1,1v4.5c0,.6-.4,1-1,1h-16.3v9h13.6c.6,0,1,.5,1,1v4.6c0,.6-.5,1-1,1h-13.6v9.7h16.3c.6,0,1,.5,1,1v4.5c0,.6-.4,1-1,1h-22.4c-.6,0-1-.5-1-1V1.6Z"></path></g></svg>